<svg xmlns="http://www.w3.org/2000/svg" viewBox="0 0 64 64" height="64" width="64">
  <path fill="#6B7280" d="M 44 20 
           Q 52 20, 56 26 
           Q 60 26, 60 32 
           Q 60 38, 56 38 
           L 8 38 
           Q 4 38, 4 32 
           Q 4 26, 8 26 
           Q 12 20, 20 20 
           Q 28 12, 36 12 
           Q 40 12, 44 20 Z"></path>
  
  <path fill="#3B82F6" d="M 16 38 L 14 50 Q 14 53, 16 53 Q 18 53, 18 50 Z"></path>
  <path fill="#3B82F6" d="M 28 38 L 26 52 Q 26 55, 28 55 Q 30 55, 30 52 Z"></path>
  <path fill="#3B82F6" d="M 40 38 L 38 49 Q 38 52, 40 52 Q 42 52, 42 49 Z"></path>
  
  <rect stroke-width="3" stroke="#60A5FA" fill="none" rx="2" height="18" width="16" y="40" x="24"></rect>
  <rect fill="#3B82F6" height="9" width="14" y="48" x="25"></rect>
  <rect fill="#6B7280" rx="2" height="4" width="24" y="56" x="20"></rect>
</svg>
